<?xml version="1.0" encoding="UTF-8"?>
<svg width="80px" height="80px" viewBox="0 0 80 80" version="1.1" xmlns="http://www.w3.org/2000/svg" xmlns:xlink="http://www.w3.org/1999/xlink">
    <title>Icon SVG toolkit</title>
    <defs>
        <linearGradient x1="50%" y1="0%" x2="50%" y2="100%" id="linearGradient-1">
            <stop stop-color="#FFFFFF" stop-opacity="0.5" offset="0%"></stop>
            <stop stop-color="#000000" stop-opacity="0.5" offset="100%"></stop>
        </linearGradient>
        <rect id="path-2" x="0" y="0" width="80" height="80" rx="8"></rect>
    </defs>
    <g id="Page-1" stroke="none" stroke-width="1" fill="none" fill-rule="evenodd">
        <g id="Icon-SVG-toolkit">
            <g id="Rectangle">
                <use fill="#FFFFFF" xlink:href="#path-2"></use>
                <use fill="url(#linearGradient-1)" xlink:href="#path-2"></use>
            </g>
            <g id="graphic" opacity="0.146135603" transform="translate(10, 21)" fill="#1A1919" fill-rule="nonzero">
                <path d="M25,14.9794463 C25,14.9794463 25,17 22.5924578,17 L14.4087557,17 C14.4087557,17 12,17 12,14.9794463 L12,8.02157208 C12,8.02157208 12,6 14.4087557,6 L22.5924578,6 C22.5924578,6 25,6 25,8.02157208 L25,14.9794463 Z" id="Fill-731"></path>
                <path d="M10.592233,38 C10.592233,38 13,38 13,36.071379 L13,27.500486 L13,18.928621 C13,18.928621 13,17 10.592233,17 L2.40776699,17 C2.40776699,17 0,17 0,18.928621 L0,27.500486 L0,36.071379 C0,36.071379 0,38 2.40776699,38 L10.592233,38 Z" id="Fill-733"></path>
                <path d="M57.6849475,25.2077013 C57.6849475,25.2077013 60,25.2077013 60,22.8926488 L60,12.6032672 L60,2.31621937 C60,2.31621937 60,0 57.6849475,0 L49.8156359,0 C49.8156359,0 47.5005834,0 47.5005834,2.31621937 L47.5005834,10.2882147 C47.5005834,10.2882147 47.5005834,12.6032672 45.1843641,12.6032672 L37.3150525,12.6032672 C37.3150525,12.6032672 35,12.6032672 35,14.9194866 L35,25.2077013 L35,35.495916 C35,35.495916 35,37.8109685 37.3150525,37.8109685 L45.1843641,37.8109685 C45.1843641,37.8109685 47.5005834,37.8109685 47.5005834,35.495916 L47.5005834,27.5227538 C47.5005834,27.5227538 47.5005834,25.2077013 49.8156359,25.2077013 L57.6849475,25.2077013 Z" id="t"></path>
            </g>
            <path d="M63.0515625,63.721875 C58.9820313,63.721875 56.1189453,62.5365234 54.4623047,60.1658203 C52.8056641,57.7951172 51.9773438,54.7203125 51.9773438,50.9414062 L51.9773438,32.2875 L46.6429688,32.2875 L46.6429688,26.7210938 L52.3429688,26.3601563 L53.25,14.7246094 L59.4527344,14.7246094 L59.4527344,26.3601563 L69.0703125,26.3601563 L69.0703125,32.2875 L59.4527344,32.2875 L59.4527344,50.9988281 C59.4527344,53.1769531 59.8730469,54.8439453 60.7136719,55.9998047 C61.5542969,57.1556641 62.9300781,57.7335937 64.8410156,57.7335937 C65.5011719,57.7335937 66.165625,57.6763672 66.834375,57.5619141 C67.503125,57.4474609 68.1660156,57.2261719 68.8230469,56.8980469 L70.2703125,62.1328125 C69.3203125,62.5921875 68.2238281,62.971875 66.9808594,63.271875 C65.7378906,63.571875 64.428125,63.721875 63.0515625,63.721875 Z" id="Path" fill="#000000" fill-rule="nonzero"></path>
            <path d="M22.4644531,64.9 C19.0332031,64.9 15.8335937,64.2603516 12.865625,62.9810547 C9.89765625,61.7017578 7.28125,59.9144531 5.01640625,57.6191406 L9.14492187,52.7652344 C10.8949219,54.4996094 12.9542969,55.8638672 15.3230469,56.8580078 C17.6917969,57.8521484 20.1207031,58.3492187 22.6097656,58.3492187 C25.6136719,58.3492187 27.9322266,57.6957031 29.5654297,56.3886719 C31.1986328,55.0816406 32.0152344,53.3515625 32.0152344,51.1984375 C32.0152344,49.6789062 31.6691406,48.4630859 30.9769531,47.5509766 C30.2847656,46.6388672 29.3484375,45.8611328 28.1679687,45.2177734 C26.9875,44.5744141 25.6332031,43.9261719 24.1050781,43.2730469 L17.2203125,40.2976562 C15.6242187,39.5992187 14.0632812,38.7017578 12.5375,37.6052734 C11.0117187,36.5087891 9.75390625,35.1308594 8.7640625,33.4714844 C7.77421875,31.8121094 7.27929687,29.7945312 7.27929687,27.41875 C7.27929687,24.85 7.96445312,22.5566406 9.33476562,20.5386719 C10.7050781,18.5207031 12.5919922,16.9205078 14.9955078,15.7380859 C17.3990234,14.5556641 20.1574219,13.9644531 23.2707031,13.9644531 C26.2464844,13.9644531 29.0119141,14.5154297 31.5669922,15.6173828 C34.1220703,16.7193359 36.2941406,18.1667969 38.0832031,19.9597656 L34.1082031,24.8136719 C32.5355469,23.4839844 30.8464844,22.4351562 29.0410156,21.6671875 C27.2355469,20.8992187 25.3121094,20.5152344 23.2707031,20.5152344 C20.7441406,20.5152344 18.7099609,21.0923828 17.1681641,22.2466797 C15.6263672,23.4009766 14.8554687,24.9777344 14.8554687,26.9769531 C14.8554687,28.3949219 15.2392578,29.5591797 16.0068359,30.4697266 C16.7744141,31.3802734 17.7789062,32.1378906 19.0203125,32.7425781 C20.2617187,33.3472656 21.5304687,33.9371094 22.8265625,34.5121094 L29.6375,37.4148437 C31.6109375,38.240625 33.3490234,39.2210937 34.8517578,40.35625 C36.3544922,41.4914062 37.5322266,42.8832031 38.3849609,44.5316406 C39.2376953,46.1800781 39.6640625,48.20625 39.6640625,50.6101562 C39.6640625,53.2320312 38.984375,55.6277344 37.625,57.7972656 C36.265625,59.9667969 34.2958984,61.6929687 31.7158203,62.9757812 C29.1357422,64.2585937 26.0519531,64.9 22.4644531,64.9 Z" id="Path" fill="#000000" fill-rule="nonzero"></path>
        </g>
    </g>
</svg>